<svg id="Layer_3" data-name="Layer 3" xmlns="http://www.w3.org/2000/svg" viewBox="0 0 108 115.59"><defs><style>.cls-1{fill:#fff;}</style></defs><path class="cls-1" d="M19.58,115c1-.75,2-1.41,2.85-2.11,2.19-1.68,4.35-3.4,6.55-5.07a12.93,12.93,0,0,1,2-1.16c.44-.22,1-.36,1.28.19s-.22.84-.63,1.06A18.31,18.31,0,0,0,24.22,116a3.27,3.27,0,0,0-.16,1.06,3.8,3.8,0,0,0,1.05.09,9.36,9.36,0,0,0,2.1-.52,5.23,5.23,0,0,0,1.42-1,7.35,7.35,0,0,1,3-2,.86.86,0,0,1,1.19.72c.14.6-.28.84-.79,1a8,8,0,0,0-1.67.72c-.19.11-.36.64-.25.78s.63.48.83.39a18.72,18.72,0,0,0,2.61-1.4c.47-.32.37-.8.06-1.28-.21-.33-.47-.94-.33-1.09A1.74,1.74,0,0,1,34.5,113a1.79,1.79,0,0,1,1.17.64,1.49,1.49,0,0,1,.12,1.15c-.18.75.22,1.08.79,1.37s.78-.06,1.17-.41a16.6,16.6,0,0,1,2.8-2,.89.89,0,0,1,1.4.54c.15.6-.15.9-.93,1.12a5.55,5.55,0,0,0-1.51.68c-.19.13-.37.68-.28.77s.69.5.91.4A14.65,14.65,0,0,0,42.61,116c.5-.33.44-.87.11-1.35-.55-.78-.55-1.15,0-1.46.74-.42,1.86-.21,2.11.46a2.24,2.24,0,0,1,.12,1.17,1,1,0,0,0,.55,1.27A1.24,1.24,0,0,0,47,116c1.16-.76,2.35-1.48,3.52-2.21a2,2,0,0,1,.28-.16c.65-.27,1.32-.62,1.93,0a1.73,1.73,0,0,1-.19,2,1.23,1.23,0,0,0-.26.7c.73-.4,1.46-.83,2.21-1.21a2.8,2.8,0,0,1,1-.36.84.84,0,0,1,.94,1.07c0,.1-.07.2-.09.31-.09.43-.17.86-.26,1.29a8,8,0,0,0,1.47-.08c.85-.2,1.68-.5,2.57-.77a1,1,0,0,1-.68,1.24,18.72,18.72,0,0,1-3,.94c-1.52.28-2.18-.27-2.43-1.87-.2.1-.39.17-.56.27-1,.58-1.91,1.18-2.88,1.75a1.16,1.16,0,0,1-1.66-.2c-.44-.6-.05-1.11.42-1.54a10.94,10.94,0,0,0,1-.9,3.93,3.93,0,0,0,.46-.83l-.2-.23a8.4,8.4,0,0,0-1.34.56c-.77.49-1.46,1.08-2.22,1.57a2.05,2.05,0,0,1-2.22,0,1.9,1.9,0,0,0-2.21.15,12.64,12.64,0,0,1-2.84,1.25,1.79,1.79,0,0,1-2-.76c-.08-.1-.15-.26-.26-.29-1-.26-1.94-.53-2.92-.71-.23,0-.51.24-.78.36-1.12.49-2.22,1-3.37,1.43a1.47,1.47,0,0,1-1.69-.67c-.34-.48-.65-.36-1.09-.26-1.67.37-3.34.77-5,1-1.29.21-1.86-.57-1.3-1.74a15,15,0,0,1,1.48-2.27,11,11,0,0,0,.89-1.16,1.74,1.74,0,0,0-.4.15l-4.72,3.35a5.7,5.7,0,0,1-1.19.81c-.44.15-1.25.27-1.36.08a2.07,2.07,0,0,1-.15-1.53c.12-.46.6-.8.88-1.22,1.82-2.72,3.62-5.44,5.43-8.16,0-.06,0-.15,0-.36-.24.18-.4.28-.54.41-2.69,2.54-5.33,5.14-8.1,7.59a21.13,21.13,0,0,1-7.76,3.94A2.12,2.12,0,0,1,3.55,118a2.44,2.44,0,0,1,.07-2.8,4.55,4.55,0,0,1,1.36-1c.2-.12.54,0,.81,0a3.66,3.66,0,0,1-.09.75c-.07.19-.28.34-.34.54s-.33.81-.19,1a1.33,1.33,0,0,0,1,.39,6.67,6.67,0,0,0,1.64-.35c3.3-1.09,5.86-3.27,8.32-5.62,2.1-2,4.29-3.88,6.44-5.81.84-.75,1.71-1.47,2.53-2.23.4-.37.72-.74,1.27-.24a1.17,1.17,0,0,1,.17,1.66c-.74,1-1.49,1.9-2.28,2.81-2,2.27-3.2,5-4.72,7.55C19.52,114.67,19.55,114.74,19.58,115Z" transform="translate(-3.14 -16.19)"/><path class="cls-1" d="M91.35,38.28c-.22.72-.54,1.9-.92,3.07-.55,1.65-1.27,3.25-1.69,4.94a11.53,11.53,0,0,0,1,7.9c.69,1.51,1.4,3,2,4.55,1.5,3.65.23,6.86-3.34,8.56-2,.93-3.94,1.83-5.86,2.84a10.44,10.44,0,0,0-4.87,5.57c-.67,1.67-1.23,3.38-2,5a6.07,6.07,0,0,1-4.58,3.44,7,7,0,0,1-3.61-.54c-1.91-.6-3.79-1.35-5.74-1.8a11.09,11.09,0,0,0-7.28,1c-1.73.8-3.45,1.61-5.21,2.33-3,1.24-6.38-.29-7.86-3.46C40.61,80,39.81,78.2,39,76.47a12.21,12.21,0,0,0-7.15-6.11c-1.33-.49-2.67-1-4-1.47a6.42,6.42,0,0,1-3.62-8.49c.69-1.71,1.29-3.46,1.9-5.2a10.93,10.93,0,0,0-.49-7.93c-.61-1.51-1.37-3-2-4.48A6.29,6.29,0,0,1,27,34.47c1.77-.84,3.52-1.71,5.24-2.63A10.55,10.55,0,0,0,37,26c.63-1.62,1.3-3.23,1.82-4.89,1.15-3.64,4.86-5.51,8.9-4,2.25.87,4.54,1.62,6.86,2.3a10,10,0,0,0,6.53-.63,50.33,50.33,0,0,0,4.62-2.06c2.81-1.46,6.91,0,8.33,3.17a58,58,0,0,0,2.86,5.75A10.28,10.28,0,0,0,82.21,30c1.85.72,3.72,1.38,5.53,2.2C90.11,33.23,91.25,35.18,91.35,38.28ZM69.51,83.33c2.86-.07,4.55-1,5.44-3.19.5-1.22,1-2.43,1.45-3.66a12.81,12.81,0,0,1,6.2-7.4c1.77-.9,3.56-1.76,5.39-2.53A5.52,5.52,0,0,0,91,59c-.73-1.43-1.32-2.93-2-4.39a13.1,13.1,0,0,1-.58-10.39c.58-1.61,1.2-3.21,1.75-4.84a5.29,5.29,0,0,0-3-6.62c-1.72-.69-3.46-1.31-5.18-2a10.32,10.32,0,0,1-5.42-4.23c-1.16-2-2.18-4-3.19-6.12A5.5,5.5,0,0,0,66,17.57c-.92.37-1.83.78-2.71,1.24a13.24,13.24,0,0,1-11.85.68,48,48,0,0,0-4.91-1.78,5.27,5.27,0,0,0-6.63,3.08c-.56,1.36-1.09,2.74-1.54,4.14a13.72,13.72,0,0,1-7.95,9c-1.35.57-2.67,1.25-4,2A5.07,5.07,0,0,0,24,41.27a21.89,21.89,0,0,0,1.62,3.92c1.49,3,2.34,6.05,1.5,9.33A63,63,0,0,1,25,61a5.45,5.45,0,0,0,2.9,7c1.31.55,2.64,1,4,1.5,3,1,5.57,2.56,7.13,5.41,1.07,2,2.1,4,3,6,1.29,3,4.66,4.81,7.71,3.17,1.3-.7,2.67-1.26,4-1.85,2.33-1,4.73-1.9,7.31-1.44a52.05,52.05,0,0,1,5.55,1.56C67.72,82.71,68.87,83.12,69.51,83.33Z" transform="translate(-3.14 -16.19)"/><path class="cls-1" d="M71.69,117c1.14-.61,2.3-1.19,3.41-1.85,1.59-.94,3.15-1.94,4.72-2.91a3.23,3.23,0,0,1,.65-.31c1.12-.4,1.74.08,1.6,1.27a14.72,14.72,0,0,1-.39,1.72,2.55,2.55,0,0,0-.17.78,1.39,1.39,0,0,0,.32.89c.15.11.64-.05.85-.23,1-.88,1.94-1.84,3-2.71,3.2-2.68,6.4-5.37,9.67-8a8.56,8.56,0,0,1,2.68-1.2,1.81,1.81,0,0,1,2.06.76,2.1,2.1,0,0,1,.26,2.28,3.77,3.77,0,0,1-.83,1.16,1.09,1.09,0,0,1-1,.09c-.15-.06-.11-.58-.14-.89a.45.45,0,0,1,.1-.21c.32-.45.55-1,.08-1.38s-1-.21-1.54.11c-4.11,2.65-7.55,6.08-11.07,9.42a27.17,27.17,0,0,1-3.14,2.63,1.79,1.79,0,0,1-2.94-1.46c-.08-.79,0-1.6,0-2.55a3.77,3.77,0,0,0-.94.29c-1.8,1.06-3.55,2.2-5.38,3.21a8.54,8.54,0,0,1-2.76,1,1.9,1.9,0,0,1-1.49-.67,1.63,1.63,0,0,1,.21-1.44c1.32-1.86,2.73-3.65,4.09-5.47,1-1.31,1.94-2.64,2.9-4a4.14,4.14,0,0,0,.31-.59l-.17-.16a7.49,7.49,0,0,0-1.08.85c-2.19,2.43-4.36,4.88-6.53,7.32a10.74,10.74,0,0,1-1.28,1.33c-.2.16-.6.08-.91.11,0-.26,0-.59.13-.77A72.74,72.74,0,0,1,77,103.92a9.18,9.18,0,0,1,2-1.39,1.72,1.72,0,0,1,1.39,0,1.26,1.26,0,0,1,.21,1.19,51.27,51.27,0,0,1-3.14,5.3c-1.82,2.55-3.82,5-5.75,7.44a1.31,1.31,0,0,0-.12.27Z" transform="translate(-3.14 -16.19)"/><path class="cls-1" d="M111.14,116.9a2.56,2.56,0,0,1-.41.45c-3.5,2.44-7,4.87-10.5,7.29-.75.51-1.55,1-2.34,1.4a2.28,2.28,0,0,1-.76.26c-.81.12-1.12-.27-.82-1a7.68,7.68,0,0,1,2.91-3.46c1-.7,2-1.28,3-1.94.48-.32.92-.71,1.37-1.06l-.08-.24c-.31,0-.62,0-.93.09-1.25.19-2.48.51-3.72-.08a1.17,1.17,0,0,0-.69,0c-1.41.31-2.75.46-3.92-.69-.16-.16-.68,0-1,.07-.74.23-1.43.61-2.18.78a1.57,1.57,0,0,1-1.89-.7,1.8,1.8,0,0,1,.19-2.24A8.23,8.23,0,0,1,94,113a1.88,1.88,0,0,1,2.51,1.43.81.81,0,0,0,.07.22c.71.88.7,1,0,1.84a5.41,5.41,0,0,0-.42.79c.31.1.66.34.94.27a4.91,4.91,0,0,0,1.57-.69c.68-.49,1.29-1.1,1.93-1.66.45-.4.88-.83,1.34-1.23.18-.16.39-.38.58-.38a1.63,1.63,0,0,1,1,.26c.11.07.06.59-.09.76a16.37,16.37,0,0,1-1.53,1.47c-.28.24-.64.4-.93.64a2.54,2.54,0,0,0-.38.55c.2.11.42.35.6.33,1-.1,2-.23,3-.42a12.41,12.41,0,0,0,1.34-.53c.74-.24,1.08.08.93.85a3.26,3.26,0,0,1-1.62,2.11c-1.59,1-3.21,2-4.79,3.1A12.26,12.26,0,0,0,98.6,124l.2.25c1-.65,2.09-1.26,3.08-2,2.33-1.63,4.62-3.31,6.94-4.94a6,6,0,0,1,1.37-.67,3.11,3.11,0,0,1,.87-.07Zm-19.64.45a6.9,6.9,0,0,0,3.4-1.89,1,1,0,0,0,.07-.81.77.77,0,0,0-.59-.32A5.25,5.25,0,0,0,91,116.59C90.78,117.06,91,117.3,91.5,117.35Z" transform="translate(-3.14 -16.19)"/><path class="cls-1" d="M63.4,131.73a5.28,5.28,0,0,1-.77-.63c-.83-1-1.63-2-2.44-3.06l-.23.05v2.28a5.26,5.26,0,0,1,0,.89c0,.13-.21.24-.32.37-.1-.14-.27-.27-.28-.4,0-1.52,0-3,0-4.57l.2-.16a4,4,0,0,1,.73.53c.84,1,1.66,2.08,2.48,3.13l.23,0v-1.7c0-.46,0-.92,0-1.37,0-.16.22-.3.33-.45.11.15.31.29.31.44,0,1.49,0,3,0,4.49Z" transform="translate(-3.14 -16.19)"/><path class="cls-1" d="M56.82,126.93a5.88,5.88,0,0,1-.84.23,8.78,8.78,0,0,1-1.45,0c-.78-.09-1,.26-.93,1,0,.48.18.68.66.65a11.16,11.16,0,0,1,1.53,0c.17,0,.32.17.49.27-.17.12-.33.33-.51.34a11.16,11.16,0,0,1-1.53,0c-.58,0-.65.31-.63.76s-.07.9.61.87,1.13,0,1.69,0a3.39,3.39,0,0,1,.76.19v.23a1.73,1.73,0,0,1-.52.16c-.89,0-1.77,0-2.66,0-.4,0-.58-.14-.58-.56,0-1.34,0-2.68,0-4,0-.17.23-.47.37-.48,1,0,2,0,3.05,0C56.45,126.6,56.55,126.73,56.82,126.93Z" transform="translate(-3.14 -16.19)"/><path class="cls-1" d="M41.5,131.65c-1.89,0-1.89,0-1.89-1.89,0-.86,0-1.72,0-2.57,0-.22.32-.59.51-.6.9-.06,1.82,0,2.73,0,.15,0,.3.21.45.32-.16.09-.33.25-.5.26-.64,0-1.29,0-1.93,0s-.59.44-.6.86,0,.81.61.76a7,7,0,0,1,1.37,0,2.43,2.43,0,0,1,.68.31,2.66,2.66,0,0,1-.72.31,9,9,0,0,1-1.37,0c-.64,0-.58.39-.57.8s-.09.84.56.83,1.34,0,2,0c.16,0,.32.19.48.29-.15.09-.31.26-.47.28C42.42,131.68,42,131.65,41.5,131.65Z" transform="translate(-3.14 -16.19)"/><path class="cls-1" d="M74.27,126.39a12.41,12.41,0,0,1,1.32.51c.12.06.13.33.19.5a2,2,0,0,1-.49,0,4,4,0,0,0-1.22-.25c-.32,0-.58.42-.87.65.21.26.37.62.65.77a12.11,12.11,0,0,0,1.5.54,1,1,0,0,1,.75,1.18,2.09,2.09,0,0,1-.84,1.23,2.47,2.47,0,0,1-2.52-.26c-.15-.08-.18-.38-.27-.57a3.28,3.28,0,0,1,.63.05,5.6,5.6,0,0,0,1.45.36,1.25,1.25,0,0,0,.85-.68c.07-.16-.32-.61-.59-.8a3.75,3.75,0,0,0-1-.31c-1-.28-1.45-.8-1.33-1.59A1.8,1.8,0,0,1,74.27,126.39Z" transform="translate(-3.14 -16.19)"/><path class="cls-1" d="M45.86,126.51c.21.21.5.37.62.62.49,1.09.94,2.2,1.49,3.51.2-.38.34-.58.43-.8.38-.92.73-1.84,1.14-2.74.11-.24.4-.4.61-.59l.25.2c-.45,1.1-.9,2.2-1.36,3.3a12.17,12.17,0,0,1-.51,1.17c-.1.2-.3.44-.47.46a.69.69,0,0,1-.53-.37c-.66-1.49-1.29-3-1.93-4.49Z" transform="translate(-3.14 -16.19)"/><path class="cls-1" d="M70.18,127a5.92,5.92,0,0,1-.93.12c-.55,0-.77.18-.76.74,0,1,0,1.93,0,2.9a2.72,2.72,0,0,1-.36.83,3.37,3.37,0,0,1-.31-.87c0-.94,0-1.88,0-2.82,0-.59-.2-.85-.8-.78a1.73,1.73,0,0,1-.64,0,.5.5,0,0,1-.23-.28c0-.06.1-.23.16-.23h3.85Z" transform="translate(-3.14 -16.19)"/><path class="cls-1" d="M83.66,50.94a25.92,25.92,0,1,1-25.94-26A25.91,25.91,0,0,1,83.66,50.94Zm-.84,0A25.08,25.08,0,1,0,57.55,76,25.12,25.12,0,0,0,82.82,51Z" transform="translate(-3.14 -16.19)"/><path class="cls-1" d="M61.05,38.2q-1.45,4.35-2.92,8.68a.76.76,0,0,1,0,.16l-.74,1c-.29-.32-.71-.58-.84-1-.92-2.74-1.79-5.5-2.68-8.26-.06-.17-.14-.33-.29-.69a8.64,8.64,0,0,0-.46.92c-.73,2.24-1.44,4.49-2.18,6.73-.25.75-.42,1.41.59,1.71.08,0,.12.16.27.39a10.56,10.56,0,0,1-4,0c.1-.2.12-.31.16-.32,1.28-.42,1.6-1.54,2-2.63q1.6-4.65,3.26-9.26c.13-.36.51-.62.78-.92.29.29.71.53.84.88.69,1.92,1.3,3.86,2,5.79A13.71,13.71,0,0,0,57.8,44c.28-.76.59-1.51.85-2.28.73-2.07,1.42-4.16,2.18-6.22.13-.33.56-.56.85-.83.25.3.62.56.73.9q1.75,5.27,3.43,10.55c.21.68.57.8,1.21.63a12.22,12.22,0,0,1,5.72-.46A13.09,13.09,0,0,1,76,47.51a2.94,2.94,0,0,1,1.78,3.22,3.09,3.09,0,0,1-2.67,2.55A9.17,9.17,0,0,1,66,49.43,1,1,0,0,0,64.44,49c-3.37,1.4-6.75,2.76-10.13,4.12-.92.37-1.87.68-2.77,1.09-.2.08-.46.49-.4.65.93,2.74,1.91,5.47,2.88,8.19a5.76,5.76,0,0,0,.3.57c.16-.38.27-.61.35-.84.86-2.51,1.71-5,2.55-7.54a3.37,3.37,0,0,1,.28-.83,1.5,1.5,0,0,1,.82-.61c.17,0,.5.4.6.68.93,2.8,1.82,5.61,2.73,8.41a1.41,1.41,0,0,0,.45.71c.32-1,.64-1.89.95-2.84.46-1.43.91-2.86,1.37-4.29s.46-1.42-.51-2.34A4.81,4.81,0,0,1,67.62,54c0,.07,0,.19-.07.2-1.38.38-1.59,1.63-2,2.71-1.08,3-2.1,6.08-3.19,9.11-.14.38-.62.64-.94,1-.24-.29-.59-.53-.71-.87C59.85,63.6,59,61,58.14,58.47a2,2,0,0,0-.44-.79c-.33.91-.68,1.8-1,2.71-.64,1.82-1.26,3.65-1.89,5.47a1.92,1.92,0,0,1-.34.72,1.06,1.06,0,0,1-.73.36.89.89,0,0,1-.6-.52c-1.06-3.24-2.07-6.49-3.13-9.72-.77-2.32-.5-1.89-2.57-1.61a32.24,32.24,0,0,1-4.39.38A6.84,6.84,0,0,1,39.12,54a2.84,2.84,0,0,1-1.42-3.09,3.24,3.24,0,0,1,2.53-2.45,8.14,8.14,0,0,1,7.24,1.72,22.11,22.11,0,0,1,1.88,1.87c.9,1,1,1,2.22.52l5.51-2.25c2.26-.91,4.51-1.85,6.79-2.73.55-.21.61-.45.43-1-.9-2.5-1.77-5-2.66-7.5-.11-.32-.26-.63-.39-.94ZM48.76,53.54c-.62-.78-1.1-1.41-1.62-2a7.42,7.42,0,0,0-3.93-2.64A5.92,5.92,0,0,0,41,48.81a2.73,2.73,0,0,0-2.43,2.5,2.88,2.88,0,0,0,2.12,2.88C43.4,55.2,46,54.44,48.76,53.54ZM67,48.11a9.55,9.55,0,0,0,3.45,4,5.3,5.3,0,0,0,4.6.73A2.64,2.64,0,0,0,76.6,49,3.85,3.85,0,0,0,74,47.31C71.55,46.69,69.32,47.52,67,48.11Z" transform="translate(-3.14 -16.19)"/></svg>